<svg width="1024" height="1024" xmlns="http://www.w3.org/2000/svg">
   <g id="icon" fill="currentColor">
      <path
         d="M 509.25781,4.0078125 A 508,508 0 0 0 4.0039062,513.82812 508,508 0 0 0 512.91406,1020 508,508 0 0 0 1020,512 l -0.014,-3.6582 A 508,508 0 0 0 1015.5625,452.11523 418,418 0 0 1 598.75195,864 418,418 0 0 1 180.00195,447.50391 418,418 0 0 1 595.74219,28.005859 418,418 0 0 1 701.17188,41.662109 508,508 0 0 0 509.25781,4.0078125 Z"
      />
      <path
         d="m 476.29987,271.60455 -20.78629,-10.65761 -19.49407,10.88966 3.71268,-23.06232 -16.38068,-15.17487 23.08085,-3.59568 9.37025,-20.26825 10.55207,20.84006 22.17182,2.64841 -16.55931,16.47556 z"
         transform="matrix(4.5223071,0,0,4.5223071,-1579.9723,-796.08221)"
      />
      <path
         d="m 476.77216,272.7752 -20.48906,-11.41747 -21.23099,11.28979 4.52719,-23.01444 -17.29797,-16.70314 23.28702,-2.80624 10.54026,-21.61289 9.86498,21.28009 23.8122,3.34563 -17.19012,15.95806 z"
         transform="matrix(4.3939959,0,0,4.3939959,-1372.5834,-438.5206)"
      />
      <path
         d="m 476.0985,271.11621 -19.62812,-11.86676 -20.04865,12.24473 5.22053,-22.33449 -17.8408,-15.28357 22.8546,-1.93671 9.02242,-21.69049 8.90438,21.13753 23.41697,1.87811 -17.35139,15.00043 z"
         transform="matrix(3.1577487,0,0,3.1577487,-622.18951,-415.95844)"
      />
   </g>
</svg>
