<svg viewBox="0 0 1024 1024" xmlns="http://www.w3.org/2000/svg" id="svg">
   <defs>
      <path
         id="beam"
         d="m 464,52 c 0,-24 24,-48 48,-48 24,0 48,24 48,48 v 128 c 0,24 -24,48 -48,48 -24,0 -48,-24 -48,-48 z"
      />
   </defs>
   <g id="icon" fill="currentColor">
      <use href="#beam" />
      <use href="#beam" transform="translate(0,792)" />
      <use href="#beam" transform="rotate(90,512,512)" />
      <use href="#beam" transform="rotate(90,116,116)" />
      <use href="#beam" transform="rotate(45,512,512)" />
      <use href="#beam" transform="rotate(45,-444.02857,116)" />
      <use href="#beam" transform="rotate(135,512,512)" />
      <use href="#beam" transform="rotate(135,347.97143,116)" />
      <path
         d="M 764,512 A 252,252 0 0 1 512.45358,763.99959 252,252 0 0 1 260.00163,512.90715 252,252 0 0 1 510.63928,260.00367 252,252 0 0 1 763.99347,510.18571"
      />
   </g>
</svg>
